<?xml version="1.0" encoding="UTF-8"?>
<!-- Generated by Pixelmator Pro 3.6.5 -->
<svg width="256" height="256" viewBox="0 0 256 256" xmlns="http://www.w3.org/2000/svg">
    <linearGradient id="linearGradient1" x1="37.490332" y1="37.490332" x2="218.509668" y2="218.509668" gradientUnits="userSpaceOnUse">
        <stop offset="0" stop-color="#fbc2eb" stop-opacity="1"/>
        <stop offset="1" stop-color="#a6c1ee" stop-opacity="1"/>
    </linearGradient>
    <path id="Rounded-Rectangle" fill="url(#linearGradient1)" fill-rule="evenodd" stroke="none" d="M 0 190 C 0 214.291901 0 226.437866 5.10016 235.544846 C 8.704667 241.981155 14.01884 247.295334 20.455151 250.899841 C 29.562141 256 41.708096 256 66 256 L 190 256 C 214.291901 256 226.437866 256 235.544846 250.899841 C 241.981155 247.295334 247.295334 241.981155 250.899841 235.544846 C 256 226.437866 256 214.291901 256 190 L 256 66 C 256 41.708099 256 29.562134 250.899841 20.455154 C 247.295334 14.018845 241.981155 8.704666 235.544846 5.100159 C 226.437851 0 214.291901 0 190 0 L 66 0 C 41.708096 0 29.562141 0 20.455151 5.100159 C 14.01884 8.704666 8.704667 14.018845 5.10016 20.455154 C 0 29.562149 0 41.708099 0 66 Z"/>
    <text id="N" xml:space="preserve" x="78" y="177" font-family="Arial" font-size="144" font-weight="700" fill="#2b2b29">N</text>
    <text id="text1" xml:space="preserve" x="76" y="175" font-family="Arial" font-size="144" font-weight="700" fill="#30383a">N</text>
    <text id="Nano" xml:space="preserve" x="85" y="235" font-family="Arial" font-size="36" fill="#2b2b29">Nano</text>
    <text id="text2" xml:space="preserve" x="84" y="234" font-family="Arial" font-size="36" fill="#30383a">Nano</text>
</svg>
